<svg width="135" height="135" viewBox="0 0 135 135" fill="none" xmlns="http://www.w3.org/2000/svg">
<g clip-path="url(#clip0)">
<path d="M135.001 67.8744C135.001 61.5607 130.488 56.2811 124.52 55.0894C123.806 48.5697 118.268 43.4786 111.561 43.4786C107.317 43.4786 103.541 45.5179 101.159 48.6665C99.3164 46.2306 96.6385 44.4612 93.5558 43.7845C94.3407 38.0681 97.9651 32.9863 103.238 30.4453L105.141 29.5287C105.16 29.5194 105.178 29.507 105.198 29.4978C109.443 32.3982 114.032 34.8289 118.9 36.7395L126.777 39.8314C127.094 39.955 127.419 40.0138 127.739 40.0138C128.792 40.0138 129.787 39.3793 130.195 38.3401L134.818 26.5582C135.074 25.9063 135.06 25.1812 134.78 24.5405C134.501 23.8989 133.978 23.3952 133.327 23.1398L125.45 20.0488C115.82 16.2699 107.673 9.73989 101.889 1.16335C101.498 0.583477 100.892 0.18282 100.206 0.0489239C99.5193 -0.0839419 98.8087 0.0602534 98.2288 0.450611L87.7355 7.52752C86.5284 8.34223 86.2101 9.98091 87.0238 11.1891C90.8007 16.788 95.3232 21.7401 100.455 25.9434C93.6578 29.4288 89.061 36.1936 88.2505 43.7227C85.7734 44.2078 83.5476 45.3964 81.7853 47.0701C81.7297 46.895 81.6556 46.7219 81.5608 46.5551L79.9427 43.7258C79.2022 42.4321 78.3576 41.2188 77.4234 40.091C79.9561 39.7552 82.6299 38.6717 85.3171 36.1946C89.1208 32.6876 89.4071 26.7364 85.9567 22.9266C82.977 19.6369 77.8756 19.3835 74.5848 22.3642C73.5054 23.3417 73.4241 25.0092 74.4015 26.0886C75.3789 27.168 77.0465 27.2504 78.1259 26.2729C79.2609 25.245 81.0201 25.3316 82.048 26.4666C83.5641 28.1403 83.4271 30.7646 81.7431 32.3168C77.992 35.7754 74.795 35.244 69.9912 33.94C66.9445 32.2571 63.5601 31.1828 60.0283 30.8347C62.0882 27.9745 64.1121 23.8535 63.6847 19.0251C63.0997 12.4158 58.1579 6.49241 48.9942 1.41775C47.8603 0.790501 46.4389 1.07889 45.6407 2.09959C44.551 3.49211 43.7249 4.71777 43.1018 5.78791C42.3427 5.02779 41.4312 4.24089 40.3549 3.49829C36.6449 0.940876 30.2066 -1.53723 20.6063 1.18807C19.3621 1.54238 18.5587 2.74538 18.707 4.02975C19.2549 8.74186 20.6959 12.3231 22.3294 14.9845C21.5497 15.0123 20.733 15.0906 19.8884 15.2327C12.3572 16.5006 5.7809 22.0552 0.338549 31.7441C-0.111547 32.5465 -0.111547 33.525 0.338549 34.3273C5.7809 44.0162 12.3572 49.5708 19.8884 50.8387C20.734 50.9809 21.5497 51.0591 22.3304 51.0869C20.6959 53.7484 19.2549 57.3296 18.707 62.0417C18.5587 63.3261 19.3621 64.5301 20.6063 64.8823C23.5726 65.7249 26.2361 66.0699 28.6101 66.0699C33.9238 66.0699 37.7913 64.3406 40.3549 62.5721C41.4312 61.8295 42.3427 61.0426 43.1018 60.2825C43.7249 61.3526 44.551 62.5783 45.6407 63.9708C45.9682 64.389 46.4008 64.6825 46.8746 64.8422C46.6418 65.8155 46.5151 66.83 46.5151 67.8734C46.5151 74.5208 51.5166 80.0188 57.9529 80.8108C57.2865 82.3753 56.9168 84.0974 56.9168 85.903C56.9168 92.5607 61.9337 98.0648 68.3844 98.8435C67.717 100.409 67.3473 102.131 67.3473 103.938C67.3473 110.583 72.3467 116.08 78.7809 116.873C78.1166 118.437 77.7489 120.154 77.7489 121.956C77.7489 129.145 83.5981 134.994 90.7873 134.994C97.9764 134.994 103.826 129.145 103.826 121.956C103.826 120.155 103.458 118.437 102.794 116.873C109.228 116.08 114.227 110.583 114.227 103.938C114.227 102.128 113.855 100.404 113.187 98.8363C119.611 98.0329 124.599 92.5421 124.599 85.903C124.599 84.0974 124.229 82.3764 123.563 80.8108C129.999 80.0198 135.001 74.5218 135.001 67.8744ZM92.9152 10.396L99.0414 6.26375C105.3 14.6734 113.715 21.1097 123.524 24.9577L128.947 27.0856L126.249 33.9586L120.826 31.8307C109.618 27.4327 100.018 20.0499 92.9152 10.396ZM111.561 48.753C115.371 48.753 118.545 51.5103 119.2 55.1337C116.102 55.8052 113.412 57.5788 111.561 60.024C109.711 57.5788 107.02 55.8052 103.922 55.1337C104.576 51.5103 107.752 48.753 111.561 48.753ZM61.7947 55.0327C62.4889 51.4588 65.6416 48.752 69.4154 48.752C73.2665 48.752 76.4707 51.571 77.0753 55.2542C74.1955 56.004 71.7009 57.7148 69.9541 60.0229C68.0013 57.4429 65.1112 55.6106 61.7947 55.0327ZM74.0482 44.3324C72.6073 43.7824 71.0469 43.4796 69.4154 43.4796C67.3709 43.4796 65.4356 43.9534 63.7115 44.7959C63.4983 41.4485 62.1871 38.5244 60.7132 36.2389C66.0268 37.0825 70.8358 39.9921 74.0482 44.3324ZM90.7574 93.6689C86.4769 93.6689 82.9935 90.1856 82.9935 85.904C82.9935 81.6224 86.4769 78.1391 90.7574 78.1391C95.039 78.1391 98.5223 81.6224 98.5223 85.904C98.5223 90.1856 95.039 93.6689 90.7574 93.6689ZM80.3558 75.6393C76.0742 75.6393 72.5908 72.156 72.5908 67.8744C72.5908 63.5928 76.0742 60.1105 80.3558 60.1105C84.6373 60.1105 88.1207 63.5928 88.1207 67.8744C88.1207 72.156 84.6373 75.6393 80.3558 75.6393ZM101.159 75.6393C96.8775 75.6393 93.3941 72.156 93.3941 67.8744C93.3941 63.5928 96.8775 60.1105 101.159 60.1105C105.441 60.1105 108.924 63.5928 108.924 67.8744C108.924 72.156 105.441 75.6393 101.159 75.6393ZM90.7574 48.753C94.5673 48.753 97.7416 51.5103 98.3967 55.1337C95.2996 55.8052 92.6083 57.5788 90.7574 60.024C88.9076 57.5788 86.2163 55.8052 83.1192 55.1337C83.7732 51.5103 86.9486 48.753 90.7574 48.753ZM44.5994 52.3682C43.3686 52.0222 42.0657 52.6072 41.5095 53.7587C41.4981 53.7834 40.2611 56.2306 37.3608 58.2318C33.8311 60.6656 29.4506 61.3784 24.3152 60.3587C25.9734 52.4156 30.7453 49.473 31.3293 49.1393C32.5827 48.4234 33.0277 46.8332 32.3283 45.5715C31.628 44.3087 30.0439 43.8432 28.7729 44.5271C27.4937 45.2151 16.2134 50.5998 5.68614 33.0357C16.2134 15.4717 27.4937 20.8563 28.7729 21.5444C30.0439 22.2283 31.629 21.7627 32.3283 20.5C33.0277 19.2372 32.5827 17.648 31.3282 16.9322C30.7453 16.5985 25.9745 13.6569 24.3162 5.71478C36.8118 3.26242 41.321 11.9368 41.5095 12.3128C42.0657 13.4643 43.3696 14.0503 44.5994 13.7032C45.7602 13.3757 46.5409 12.3076 46.5203 11.1201C46.5481 10.9254 46.7819 9.66883 48.4432 7.19999C54.6786 11.0377 58.0353 15.1555 58.4298 19.4618C58.8964 24.5673 55.0309 28.8767 53.4622 30.399H50.2436L43.4942 23.6496C42.4653 22.6207 40.7957 22.6196 39.7657 23.6496C38.7358 24.6796 38.7358 26.3492 39.7657 27.3781L42.7866 30.399H31.8721C30.4157 30.399 29.2353 31.5793 29.2353 33.0357C29.2353 34.4921 30.4157 35.6724 31.8721 35.6724H42.7866L38.7337 39.7254C37.7037 40.7543 37.7037 42.4239 38.7337 43.4538C39.2487 43.9688 39.9233 44.2263 40.5979 44.2263C41.2726 44.2263 41.9482 43.9688 42.4622 43.4538L50.2436 35.6724H53.4612C55.035 37.1999 58.8964 41.5072 58.4298 46.6097C58.0353 50.9149 54.6786 55.0338 48.4432 58.8714C46.7819 56.4016 46.5481 55.146 46.5203 54.9504C46.5409 53.7638 45.7602 52.6958 44.5994 52.3682ZM51.7886 67.8744C51.7886 63.5928 55.2719 60.1095 59.5535 60.1095C63.8351 60.1095 67.3184 63.5928 67.3184 67.8744C67.3184 72.156 63.8351 75.6393 59.5535 75.6393C55.2709 75.6393 51.7886 72.156 51.7886 67.8744ZM62.1902 85.904C62.1902 81.6224 65.6725 78.1391 69.9551 78.1391C74.2367 78.1391 77.7201 81.6224 77.7201 85.904C77.7201 90.1856 74.2367 93.6689 69.9551 93.6689C65.6725 93.6689 62.1902 90.1856 62.1902 85.904ZM72.6207 103.939C72.6207 99.6572 76.104 96.1738 80.3856 96.1738C84.6672 96.1738 88.1506 99.6572 88.1506 103.939C88.1506 108.22 84.6672 111.704 80.3856 111.704C76.104 111.704 72.6207 108.22 72.6207 103.939ZM90.7873 129.722C86.5057 129.722 83.0223 126.239 83.0223 121.957C83.0223 117.675 86.5057 114.192 90.7873 114.192C95.0688 114.192 98.5522 117.675 98.5522 121.957C98.5522 126.239 95.0688 129.722 90.7873 129.722ZM101.189 111.704C96.9073 111.704 93.424 108.22 93.424 103.939C93.424 99.6572 96.9073 96.1738 101.189 96.1738C105.47 96.1738 108.954 99.6572 108.954 103.939C108.954 108.22 105.47 111.704 101.189 111.704ZM111.561 93.6689C107.279 93.6689 103.796 90.1856 103.796 85.904C103.796 81.6224 107.279 78.1391 111.561 78.1391C115.842 78.1391 119.326 81.6224 119.326 85.904C119.326 90.1856 115.842 93.6689 111.561 93.6689ZM121.962 75.6393C117.681 75.6393 114.197 72.156 114.197 67.8744C114.197 63.5928 117.681 60.1105 121.962 60.1105C126.244 60.1105 129.727 63.5928 129.727 67.8744C129.727 72.156 126.244 75.6393 121.962 75.6393Z" fill="white"/>
<path d="M20.48 30.3985C19.7837 30.3985 19.106 30.6807 18.6157 31.171C18.1224 31.6612 17.8433 32.342 17.8433 33.0352C17.8433 33.7284 18.1224 34.4092 18.6157 34.8995C19.106 35.3897 19.7858 35.6719 20.48 35.6719C21.1731 35.6719 21.8509 35.3897 22.3432 34.8995C22.8345 34.4092 23.1167 33.7284 23.1167 33.0352C23.1167 32.342 22.8345 31.6612 22.3432 31.171C21.8529 30.6807 21.1731 30.3985 20.48 30.3985Z" fill="white"/>
</g>
<defs>
<clipPath id="clip0">
<rect width="135" height="135" fill="white"/>
</clipPath>
</defs>
</svg>
