<svg width="34" height="56" viewBox="0 0 34 56" fill="none" xmlns="http://www.w3.org/2000/svg">
<path d="M1.74607 31.836C2.02607 32.118 2.33607 32.356 2.65807 32.563L24.2671 54.171C26.3761 56.278 29.7941 56.279 31.9041 54.17C34.0131 52.062 34.0131 48.643 31.9041 46.533L13.2931 27.924L31.9981 9.21703C34.1081 7.11003 34.1081 3.69003 31.9981 1.58002C30.9431 0.527023 29.5621 2.63516e-05 28.1811 2.62308e-05C26.8001 2.61101e-05 25.4161 0.527026 24.3641 1.58203L2.65807 23.285C2.33607 23.492 2.02707 23.729 1.74607 24.012C0.666068 25.092 0.14807 26.51 0.172068 27.924C0.147067 29.339 0.666067 30.759 1.74607 31.836Z" fill="#182456" fill-opacity="0.7"/>
</svg>
