<svg width="34" height="56" viewBox="0 0 34 56" fill="none" xmlns="http://www.w3.org/2000/svg">
<path d="M32.0059 23.916C31.7259 23.634 31.4159 23.396 31.0939 23.189L9.48489 1.58099C7.37589 -0.526012 3.95789 -0.527012 1.84789 1.58199C-0.261113 3.68999 -0.261113 7.10899 1.84789 9.21899L20.4589 27.828L1.75389 46.535C-0.356113 48.642 -0.356113 52.062 1.75389 54.172C2.80889 55.225 4.18989 55.752 5.57089 55.752C6.95189 55.752 8.33589 55.225 9.38789 54.17L31.0939 32.467C31.4159 32.26 31.7249 32.023 32.0059 31.74C33.0859 30.66 33.6039 29.242 33.5799 27.828C33.6049 26.413 33.0859 24.993 32.0059 23.916Z" fill="#182456" fill-opacity="0.7"/>
</svg>
