<svg width="53" height="47" viewBox="0 0 53 47" fill="none" xmlns="http://www.w3.org/2000/svg">
<path d="M49.8144 19.7798C49.5975 19.7446 49.3781 19.7284 49.1585 19.7312H11.7681L12.5834 19.352C13.3803 18.9748 14.1053 18.4615 14.7259 17.8352L25.2111 7.34997C26.592 6.03173 26.8241 3.9111 25.761 2.3254C24.5237 0.635659 22.1509 0.268771 20.461 1.50607C20.3245 1.60609 20.1947 1.71511 20.0728 1.83243L1.11219 20.793C-0.369583 22.2732 -0.370887 24.6742 1.10923 26.1559C1.11017 26.1569 1.11124 26.1579 1.11219 26.1589L20.0728 45.1195C21.5558 46.5983 23.9568 46.595 25.4357 45.112C25.5521 44.9953 25.6607 44.8711 25.761 44.7403C26.8241 43.1546 26.592 41.034 25.2111 39.7157L14.7449 29.2116C14.1885 28.6546 13.5488 28.1876 12.8488 27.8274L11.7112 27.3155H48.9498C50.887 27.3874 52.5866 26.0342 52.9505 24.1301C53.2857 22.0628 51.8817 20.1152 49.8144 19.7798Z" fill="#182456" fill-opacity="0.7"/>
</svg>
