<svg width="135" height="135" viewBox="0 0 135 135" fill="none" xmlns="http://www.w3.org/2000/svg">
<path d="M67.5 79.4373C62.0278 79.4373 57.5763 83.8888 57.5763 89.3611C57.5763 94.8323 62.0278 99.2848 67.5 99.2848C72.9722 99.2848 77.4238 94.8323 77.4238 89.3611C77.4238 83.8888 72.9722 79.4373 67.5 79.4373ZM67.5 94.0114C64.9354 94.0114 62.8497 91.9247 62.8497 89.3611C62.8497 86.7964 64.9354 84.7108 67.5 84.7108C70.0646 84.7108 72.1503 86.7964 72.1503 89.3611C72.1503 91.9247 70.0646 94.0114 67.5 94.0114Z" fill="#E26D97"/>
<path d="M116.84 32.684V2.63672C116.84 1.18034 115.658 0 114.203 0H100.953C99.498 0 98.3167 1.18034 98.3167 2.63672V32.684C93.586 35.1456 89.8544 39.0152 87.5391 43.6408C85.2237 39.0152 81.4921 35.1456 76.7615 32.684V2.63672C76.7615 1.18034 75.5801 0 74.1248 0H60.8752C59.4199 0 58.2385 1.18034 58.2385 2.63672V32.684C53.5079 35.1456 49.7763 39.0152 47.4609 43.6408C45.1456 39.0152 41.414 35.1456 36.6833 32.684V2.63672C36.6833 1.18034 35.502 0 34.0466 0H20.7971C19.3418 0 18.1604 1.18034 18.1604 2.63672V32.684C9.9567 36.9532 4.74609 45.4515 4.74609 54.7974V132.363C4.74609 133.82 5.92644 135 7.38281 135H127.617C129.074 135 130.254 133.82 130.254 132.363V54.7974C130.254 45.4515 125.043 36.9532 116.84 32.684ZM111.566 5.27344V22.2998H103.59V5.27344H111.566ZM102.004 36.7647C102.967 36.3465 103.59 35.3969 103.59 34.3464V27.5733H111.566V34.3464C111.566 35.3969 112.189 36.3465 113.152 36.7647C120.337 39.8855 124.98 46.9635 124.98 54.7974V64.8633H90.1758V54.7974C90.1758 46.9635 94.8189 39.8855 102.004 36.7647ZM10.0195 70.1367H44.8242V108.584H10.0195V70.1367ZM50.0977 70.1367H84.9023V108.584H50.0977V70.1367ZM71.488 5.27344V22.2998H63.512V5.27344H71.488ZM61.9258 36.7647C62.8888 36.3465 63.512 35.3969 63.512 34.3464V27.5733H71.488V34.3464C71.488 35.3969 72.1112 36.3465 73.0742 36.7647C80.2592 39.8855 84.9023 46.9635 84.9023 54.7974V64.8633H79.6289V54.7974C79.6289 52.6376 79.1314 50.4684 78.1921 48.527C77.5576 47.2158 75.9797 46.6679 74.6696 47.3023C73.3585 47.9378 72.8105 49.5137 73.445 50.8248C74.0496 52.0721 74.3555 53.409 74.3555 54.7974V64.8633H50.0977V54.7974C50.0977 46.9635 54.7408 39.8855 61.9258 36.7647ZM31.4099 5.27344V22.2998H23.4338V5.27344H31.4099ZM21.8477 36.7647C22.8107 36.3465 23.4338 35.3969 23.4338 34.3464V27.5733H31.4099V34.3464C31.4099 35.3969 32.033 36.3465 32.9961 36.7647C40.1811 39.8855 44.8242 46.9635 44.8242 54.7974V64.8633H10.0195V54.7974C10.0195 46.9635 14.6626 39.8855 21.8477 36.7647ZM10.0195 113.858H44.8242V129.727H10.0195V113.858ZM50.0977 113.858H84.9023V129.727H50.0977V113.858ZM90.1758 129.727V113.858H108.72C110.177 113.858 111.357 112.677 111.357 111.221C111.357 109.766 110.177 108.584 108.72 108.584H90.1758V70.1367H124.98V129.727H90.1758Z" fill="#E26D97"/>
<path d="M118.652 108.585C117.959 108.585 117.278 108.868 116.788 109.358C116.298 109.848 116.016 110.526 116.016 111.222C116.016 111.915 116.298 112.596 116.788 113.086C117.278 113.577 117.959 113.859 118.652 113.859C119.346 113.859 120.026 113.577 120.517 113.086C121.007 112.596 121.289 111.915 121.289 111.222C121.289 110.529 121.007 109.848 120.517 109.358C120.026 108.868 119.346 108.585 118.652 108.585Z" fill="#E26D97"/>
<path d="M107.578 79.4373C102.106 79.4373 97.6544 83.8888 97.6544 89.3611C97.6544 94.8323 102.106 99.2848 107.578 99.2848C113.05 99.2848 117.502 94.8323 117.502 89.3611C117.502 83.8888 113.05 79.4373 107.578 79.4373ZM107.578 94.0114C105.014 94.0114 102.928 91.9247 102.928 89.3611C102.928 86.7964 105.014 84.7108 107.578 84.7108C110.143 84.7108 112.228 86.7964 112.228 89.3611C112.228 91.9247 110.143 94.0114 107.578 94.0114Z" fill="#E26D97"/>
<path d="M27.4219 79.4373C21.9497 79.4373 17.4981 83.8888 17.4981 89.3611C17.4981 94.8323 21.9497 99.2848 27.4219 99.2848C32.8941 99.2848 37.3456 94.8323 37.3456 89.3611C37.3456 83.8888 32.8941 79.4373 27.4219 79.4373ZM27.4219 94.0114C24.8573 94.0114 22.7716 91.9247 22.7716 89.3611C22.7716 86.7964 24.8573 84.7108 27.4219 84.7108C29.9865 84.7108 32.0722 86.7964 32.0722 89.3611C32.0722 91.9247 29.9865 94.0114 27.4219 94.0114Z" fill="#E26D97"/>
<path d="M69.7865 45.7924C70.4797 45.7924 71.1595 45.5102 71.6497 45.0189C72.14 44.5266 72.4232 43.8488 72.4232 43.1557C72.4232 42.4615 72.141 41.7817 71.6497 41.2914C71.1595 40.8001 70.4797 40.519 69.7865 40.519C69.0903 40.519 68.4126 40.8001 67.9223 41.2914C67.4289 41.7817 67.1498 42.4615 67.1498 43.1557C67.1498 43.8488 67.4289 44.5266 67.9223 45.0189C68.4126 45.5102 69.0923 45.7924 69.7865 45.7924Z" fill="#E26D97"/>
</svg>
