<svg width="87" height="69" viewBox="0 0 87 69" fill="none" xmlns="http://www.w3.org/2000/svg">
<path d="M86.8403 61.8347C86.4434 60.9844 85.4338 60.6161 84.5822 61.0123L81.0324 62.6677L74.5482 48.7621C79.5012 45.5382 81.4645 39.062 78.8965 33.5542L63.8339 1.25263C63.6434 0.843762 63.2983 0.527815 62.8748 0.373824C62.452 0.219834 61.9847 0.239746 61.5758 0.430907L43.4999 8.85924L25.4245 0.430907C25.0163 0.24041 24.549 0.219834 24.1256 0.373824C23.7021 0.527815 23.3569 0.843762 23.1664 1.25263L8.1039 33.5542C5.53583 39.062 7.49855 45.5382 12.4521 48.7621L5.96794 62.6677L2.41819 61.0123C1.56725 60.6161 0.556359 60.9838 0.159434 61.8347C-0.236827 62.685 0.130893 63.6959 0.981824 64.0928L11.1618 68.8393C11.3941 68.9482 11.6384 68.9993 11.8787 68.9993C12.5185 68.9993 13.1318 68.6355 13.4199 68.0176C13.8162 67.1673 13.4484 66.1564 12.5982 65.7595L9.04775 64.1041L15.5333 50.1971C16.6842 50.5476 17.8591 50.7208 19.022 50.7208C23.5693 50.7208 27.9322 48.1395 29.9772 43.7541L43.4999 14.7554L57.0225 43.7541C59.0675 48.1402 63.4304 50.7208 67.9777 50.7208C69.1406 50.7208 70.3155 50.5476 71.4671 50.1971L77.952 64.1041L74.4022 65.7595C73.5513 66.1564 73.1836 67.1673 73.5798 68.0176C73.8686 68.6362 74.4812 68.9993 75.1211 68.9993C75.3613 68.9993 75.6063 68.9475 75.8386 68.8393L86.0179 64.0928C86.8688 63.6959 87.2372 62.685 86.8403 61.8347ZM26.8981 42.3177C24.8776 46.65 19.7096 48.5311 15.3773 46.5106C11.045 44.4908 9.16391 39.3229 11.1844 34.9905L17.2398 22.0042H36.3705L26.8981 42.3177ZM37.9549 18.6058H18.8242L25.5287 4.2289L41.2424 11.5561L37.9549 18.6058ZM61.4723 4.2289L68.1762 18.6058H49.0455L45.7586 11.5561L61.4723 4.2289ZM60.103 42.3177L50.6306 22.0042H69.7606L75.8167 34.9905C77.8365 39.3229 75.9554 44.4908 71.6231 46.5106C67.2914 48.5304 62.1228 46.65 60.103 42.3177Z" fill="white"/>
</svg>
