<svg width="150" height="150" viewBox="0 0 150 150" fill="none" xmlns="http://www.w3.org/2000/svg">
<path d="M149.725 137.647C149.041 136.181 147.3 135.546 145.832 136.229L139.712 139.083L128.532 115.108C137.072 109.549 140.457 98.3834 136.029 88.8871L110.059 33.1945C109.731 32.4895 109.136 31.9448 108.405 31.6793C107.676 31.4138 106.871 31.4481 106.166 31.7777L75.0001 46.3094L43.8356 31.7777C43.1318 31.4493 42.3261 31.4138 41.596 31.6793C40.8659 31.9448 40.2708 32.4895 39.9423 33.1945L13.9723 88.8871C9.54459 98.3834 12.9286 109.549 21.4693 115.108L10.2896 139.083L4.16931 136.229C2.70218 135.546 0.959244 136.18 0.274888 137.647C-0.408324 139.113 0.225678 140.856 1.69281 141.54L19.2446 149.724C19.6451 149.911 20.0663 150 20.4805 150C21.5838 150 22.6412 149.372 23.1379 148.307C23.8211 146.841 23.1871 145.098 21.7211 144.414L15.5996 141.56L26.7817 117.582C28.7661 118.186 30.7917 118.485 32.7967 118.485C40.637 118.485 48.1592 114.034 51.6851 106.473L75.0001 56.4752L98.3151 106.473C101.841 114.035 109.363 118.485 117.204 118.485C119.209 118.485 121.234 118.186 123.22 117.582L134.401 141.56L128.28 144.414C126.813 145.098 126.179 146.841 126.862 148.307C127.36 149.374 128.416 150 129.52 150C129.934 150 130.356 149.91 130.757 149.724L148.307 141.54C149.775 140.856 150.41 139.113 149.725 137.647ZM46.3762 103.997C42.8926 111.466 33.9823 114.709 26.5127 111.226C19.0432 107.743 15.7999 98.8331 19.2835 91.3636L29.7239 68.9732H62.708L46.3762 103.997ZM65.4397 63.1139H32.4556L44.0153 38.326L71.108 50.9591L65.4397 63.1139ZM105.987 38.326L117.546 63.1139H84.5617L78.8945 50.9591L105.987 38.326ZM103.626 103.997L87.2945 68.9732H120.277L130.719 91.3636C134.201 98.8331 130.958 107.743 123.489 111.226C116.02 114.708 107.109 111.466 103.626 103.997Z" fill="#E9612C"/>
<path d="M75.0024 24.9516C76.6194 24.9516 77.9321 23.6401 77.9321 22.0219V2.92967C77.9321 1.31147 76.6194 -3.05176e-05 75.0024 -3.05176e-05C73.3842 -3.05176e-05 72.0727 1.31147 72.0727 2.92967V22.0219C72.0727 23.6401 73.3842 24.9516 75.0024 24.9516Z" fill="#E9612C"/>
<path d="M75.0024 36.6714C75.7726 36.6714 76.5279 36.3578 77.0726 35.8119C77.6185 35.2672 77.9321 34.5119 77.9321 33.7417C77.9321 32.9703 77.6185 32.215 77.0726 31.6703C76.5279 31.1244 75.7726 30.812 75.0024 30.812C74.2311 30.812 73.4757 31.1244 72.931 31.6703C72.3863 32.215 72.0727 32.9703 72.0727 33.7417C72.0727 34.5119 72.3851 35.2672 72.931 35.8119C73.4757 36.3578 74.2311 36.6714 75.0024 36.6714Z" fill="#E9612C"/>
<path d="M86.4282 29.8828C87.1777 29.8828 87.9273 29.5967 88.4995 29.0245L98.4605 19.0636C99.6038 17.9203 99.6038 16.0652 98.4605 14.9208C97.3161 13.7764 95.461 13.7764 94.3166 14.9208L84.3556 24.8817C83.2124 26.025 83.2124 27.8801 84.3556 29.0245C84.9278 29.5967 85.6774 29.8828 86.4282 29.8828Z" fill="#E9612C"/>
<path d="M61.5044 29.0242C62.0766 29.5964 62.8262 29.8825 63.5769 29.8825C64.3265 29.8825 65.0761 29.5964 65.6483 29.0242C66.7916 27.8809 66.7916 26.0259 65.6483 24.8814L55.6873 14.9205C54.5429 13.7761 52.6878 13.7761 51.5434 14.9205C50.4002 16.0649 50.4002 17.92 51.5434 19.0644L61.5044 29.0242Z" fill="#E9612C"/>
<path d="M105.77 77.3894L105.726 77.2944C105.042 75.8284 103.299 75.1921 101.833 75.8765C100.366 76.5597 99.7308 78.3026 100.414 79.7686L100.458 79.8625C100.955 80.9291 102.012 81.5562 103.116 81.5562C103.529 81.5562 103.95 81.4681 104.351 81.2815C105.818 80.5983 106.453 78.8554 105.77 77.3894Z" fill="#E9612C"/>
<path d="M110.368 87.2508C109.685 85.7848 107.942 85.1496 106.475 85.834C105.009 86.5172 104.374 88.2613 105.058 89.7273L111.301 103.115C111.797 104.181 112.855 104.807 113.958 104.807C114.372 104.807 114.794 104.719 115.194 104.531C116.66 103.848 117.295 102.105 116.611 100.639L110.368 87.2508Z" fill="#E9612C"/>
</svg>
