<svg width="138" height="138" viewBox="0 0 138 138" fill="none" xmlns="http://www.w3.org/2000/svg">
<g clip-path="url(#clip0)">
<path d="M93.4179 60.413C92.3377 59.3886 90.632 59.4318 89.6076 60.512C88.5832 61.5912 88.6274 63.2979 89.7066 64.3223C92.8009 67.2608 94.0033 71.6365 92.842 75.7437L90.154 85.251C89.7487 86.6829 90.5815 88.1716 92.0134 88.577C92.2587 88.6465 92.5051 88.6791 92.7483 88.6791C93.9243 88.6791 95.0046 87.9042 95.3404 86.7176L98.0284 77.2103C99.7361 71.1711 97.9694 64.734 93.4179 60.413Z" fill="#3164D1"/>
<path d="M131.644 35.9088C125.713 28.3314 116.793 23.9852 107.171 23.9852H82.4608V13.9788L88.7885 3.85346C89.3075 3.02276 89.3349 1.97622 88.86 1.11919C88.3852 0.262162 87.4829 -0.269531 86.5027 -0.269531H44.4894C43.4366 -0.269531 42.4816 0.342179 42.0415 1.29712C41.6014 2.25312 41.7573 3.37652 42.4406 4.17669L51.0077 14.1999V28.5546C51.0077 31.4236 49.8148 34.2021 47.7343 36.1773L28.1406 54.7792C21.755 60.8415 19.2756 69.8708 21.6719 78.3442L23.9123 86.266C23.6333 86.3986 23.3575 86.5397 23.0869 86.6976C18.2901 89.4824 16.3054 95.2742 18.1227 100.317C16.8782 100.547 15.6506 100.988 14.4945 101.66C9.69981 104.444 7.71517 110.231 9.52819 115.272C8.27003 115.506 7.04766 115.957 5.90846 116.618C3.29422 118.137 1.4275 120.582 0.652594 123.505C-0.12231 126.427 0.286199 129.476 1.80442 132.091C3.32264 134.705 5.76843 136.573 8.69117 137.347C9.65769 137.603 10.6379 137.731 11.6118 137.731C13.5828 137.731 15.5274 137.211 17.2772 136.195C18.4322 135.524 19.4219 134.678 20.2368 133.712C22.4226 136.273 25.6043 137.68 28.8597 137.68C30.7875 137.68 32.7406 137.187 34.5252 136.151C35.6654 135.489 36.6635 134.65 37.4911 133.672C38.9714 135.41 40.9392 136.659 43.1923 137.257C43.2091 137.261 43.226 137.264 43.2418 137.269C43.6682 137.55 44.1778 137.715 44.7263 137.715H88.7421C92.4324 137.715 95.711 135.235 96.7154 131.684L103.332 108.282L116.867 103.837C129.655 99.6373 138.248 87.7726 138.248 74.3129V55.0613C138.248 48.1525 135.902 41.35 131.644 35.9088ZM81.6406 5.12005L78.2714 10.5107H54.9454L50.3381 5.12005H81.6406ZM23.0406 94.9657C23.4459 93.4349 24.424 92.1535 25.7938 91.3586C26.7287 90.8154 27.7511 90.5574 28.7608 90.5574C30.8065 90.5574 32.7995 91.6155 33.8987 93.5075C35.5401 96.3344 34.5757 99.97 31.7488 101.612C30.379 102.407 28.7818 102.622 27.251 102.216C25.7201 101.81 24.4398 100.832 23.6439 99.4625C22.849 98.0938 22.6342 96.4966 23.0406 94.9657ZM42.5595 108.422V108.423C42.5606 108.423 42.5606 108.423 42.5606 108.424C43.3555 109.793 43.5692 111.39 43.1639 112.921C42.7575 114.452 41.7804 115.732 40.4106 116.528C39.0409 117.323 37.4437 117.537 35.9128 117.132C34.382 116.725 33.1006 115.748 32.3057 114.378C31.5108 113.009 31.296 111.411 31.7025 109.881C32.1078 108.35 33.0859 107.069 34.4557 106.273C35.3717 105.741 36.3908 105.469 37.4226 105.469C37.9333 105.469 38.4471 105.535 38.9524 105.67C40.4833 106.075 41.7636 107.054 42.5595 108.422ZM17.2014 106.321C18.1353 105.778 19.1587 105.52 20.1684 105.52C22.2141 105.52 24.2072 106.578 25.3063 108.47C26.1012 109.839 26.316 111.437 25.9096 112.967C25.5043 114.498 24.5262 115.779 23.1574 116.575C23.1564 116.575 23.1564 116.575 23.1564 116.575C23.1564 116.576 23.1553 116.576 23.1553 116.576C21.7856 117.369 20.1894 117.584 18.6586 117.179C18.1301 117.038 17.6342 116.825 17.1741 116.557C17.1298 116.531 17.0856 116.505 17.0414 116.481C16.2286 115.976 15.5463 115.276 15.0515 114.425C13.4101 111.599 14.3745 107.962 17.2014 106.321ZM14.5703 131.534C13.2006 132.33 11.6034 132.543 10.0725 132.138C8.54167 131.732 7.26139 130.753 6.46543 129.384C5.67052 128.014 5.45574 126.417 5.86214 124.887C6.26749 123.356 7.24559 122.075 8.61537 121.28C9.5324 120.747 10.5505 120.475 11.5834 120.475C12.093 120.475 12.6068 120.542 13.1132 120.675C13.6428 120.817 14.1397 121.029 14.5998 121.299C14.643 121.324 14.6861 121.349 14.7304 121.372C15.5432 121.878 16.2254 122.578 16.7203 123.429C17.232 124.31 17.4899 125.269 17.5183 126.222V126.25C17.5699 128.347 16.5086 130.408 14.5703 131.534ZM34.5715 127.883C34.1651 129.414 33.188 130.696 31.8183 131.49C28.9903 133.133 25.3548 132.168 23.7134 129.34C22.9174 127.972 22.7037 126.374 23.109 124.843C23.5154 123.313 24.4925 122.032 25.8622 121.237H25.8633C25.8633 121.236 25.8633 121.236 25.8633 121.236C26.7803 120.704 27.7985 120.432 28.8303 120.432C29.3409 120.432 29.8536 120.499 30.3601 120.632C31.8909 121.039 33.1722 122.017 33.9672 123.386C34.7631 124.755 34.9779 126.352 34.5715 127.883ZM43.1175 121.189C44.0335 120.657 45.0527 120.385 46.0845 120.385C46.5951 120.385 47.1089 120.451 47.6154 120.586C49.1452 120.991 50.4265 121.969 51.2214 123.339C52.0174 124.708 52.2311 126.306 51.8257 127.836C51.4193 129.367 50.4412 130.648 49.0725 131.443C47.7027 132.239 46.1056 132.453 44.5747 132.047C43.0438 131.641 41.7625 130.663 40.9676 129.294C39.3251 126.467 40.2896 122.831 43.1175 121.189ZM91.528 130.219C91.1774 131.459 90.0319 132.325 88.7421 132.325H55.6824C57.8334 128.879 58.0608 124.384 55.8824 120.632C54.3642 118.017 51.9184 116.15 48.9967 115.375C48.6987 115.296 48.3997 115.233 48.0997 115.178C48.2007 114.891 48.2945 114.6 48.3734 114.303C48.9072 112.288 48.8788 110.214 48.3124 108.263C50.3591 107.344 52.6407 107.154 54.8401 107.737L55.7213 107.971C57.1595 108.352 58.6356 107.495 59.0168 106.055C59.3979 104.617 58.5409 103.142 57.1027 102.76L56.2214 102.526C52.6375 101.576 48.9114 101.955 45.617 103.578C44.1925 102.083 42.3816 101.003 40.3338 100.46C40.0348 100.381 39.7337 100.316 39.4325 100.262C40.5012 97.2388 40.2917 93.7844 38.5587 90.8006C36.5424 87.3283 32.9501 85.331 29.2061 85.1805L26.8582 76.8776C25.0094 70.3373 26.9225 63.3673 31.852 58.6874L51.4457 40.0865C54.5927 37.0975 56.3983 32.8955 56.3983 28.5546V15.9003H77.0701V28.5546C77.0701 32.8955 78.8758 37.0975 82.0228 40.0865L101.616 58.6874C106.546 63.3673 108.459 70.3373 106.61 76.8776L98.5379 105.425C98.5358 105.431 98.5348 105.437 98.5327 105.444L91.528 130.219ZM105.328 54.7792L92.1955 42.3112H107.171C111.12 42.3112 114.779 44.0948 117.212 47.2039C118.959 49.4359 119.921 52.227 119.921 55.0613V74.3118C119.921 79.8351 116.397 84.7025 111.149 86.426L109.344 87.0177L111.797 78.3432C114.193 69.8708 111.713 60.8415 105.328 54.7792ZM132.857 74.3129C132.857 85.4374 125.755 95.2447 115.186 98.716L105.1 102.027L107.577 93.2727L112.832 91.5471C120.296 89.095 125.311 82.1693 125.311 74.3118V55.0613C125.311 51.0289 123.942 47.0586 121.457 43.8821C117.995 39.458 112.788 36.9216 107.171 36.9216H86.5185L85.7341 36.1773C83.8527 34.3916 82.7008 31.9479 82.4966 29.3758H107.171C115.125 29.3758 122.497 32.9682 127.399 39.2306C130.919 43.7284 132.857 49.3506 132.857 55.0613V74.3129Z" fill="#3164D1"/>
<path d="M80.9321 51.6722C80.2235 51.6722 79.5286 51.9607 79.0264 52.4618C78.5252 52.963 78.2368 53.6579 78.2368 54.3675C78.2368 55.0761 78.5252 55.771 79.0264 56.2721C79.5286 56.7733 80.2235 57.0618 80.9321 57.0618C81.6406 57.0618 82.3366 56.7733 82.8377 56.2721C83.3389 55.771 83.6274 55.0761 83.6274 54.3675C83.6274 53.6579 83.3389 52.963 82.8377 52.4618C82.3366 51.9607 81.6417 51.6722 80.9321 51.6722Z" fill="#3164D1"/>
</g>
<defs>
<clipPath id="clip0">
<rect width="138" height="138" fill="white"/>
</clipPath>
</defs>
</svg>
