<svg width="138" height="138" viewBox="0 0 138 138" fill="none" xmlns="http://www.w3.org/2000/svg">
<g clip-path="url(#clip0)">
<path d="M93.4178 60.413C92.3375 59.3886 90.6319 59.4318 89.6075 60.512C88.583 61.5912 88.6273 63.2979 89.7064 64.3223C92.8008 67.2608 94.0032 71.6365 92.8419 75.7437L90.1539 85.251C89.7486 86.6829 90.5814 88.1716 92.0133 88.577C92.2586 88.6465 92.5049 88.6791 92.7482 88.6791C93.9242 88.6791 95.0044 87.9042 95.3403 86.7176L98.0282 77.2103C99.736 71.1711 97.9693 64.734 93.4178 60.413Z" fill="white"/>
<path d="M131.644 35.9088C125.713 28.3314 116.794 23.9852 107.171 23.9852H82.4609V13.9788L88.7886 3.85346C89.3076 3.02276 89.335 1.97622 88.8602 1.11919C88.3853 0.262162 87.483 -0.269531 86.5028 -0.269531H44.4895C43.4367 -0.269531 42.4817 0.342179 42.0416 1.29712C41.6016 2.25312 41.7574 3.37652 42.4407 4.17669L51.0078 14.1999V28.5546C51.0078 31.4236 49.8149 34.2021 47.7345 36.1773L28.1408 54.7792C21.7552 60.8415 19.2757 69.8708 21.672 78.3442L23.9125 86.266C23.6335 86.3986 23.3576 86.5397 23.087 86.6976C18.2902 89.4824 16.3056 95.2742 18.1228 100.317C16.8783 100.547 15.6507 100.988 14.4947 101.66C9.69993 104.444 7.71529 110.231 9.52832 115.272C8.27015 115.506 7.04778 115.957 5.90859 116.618C3.29434 118.137 1.42762 120.582 0.652716 123.505C-0.122188 126.427 0.286321 129.476 1.80454 132.091C3.32277 134.705 5.76856 136.573 8.69129 137.347C9.65782 137.603 10.638 137.731 11.6119 137.731C13.5829 137.731 15.5275 137.211 17.2774 136.195C18.4323 135.524 19.422 134.678 20.2369 133.712C22.4227 136.273 25.6044 137.68 28.8599 137.68C30.7876 137.68 32.7407 137.187 34.5253 136.151C35.6655 135.489 36.6636 134.65 37.4912 133.672C38.9715 135.41 40.9393 136.659 43.1924 137.257C43.2093 137.261 43.2261 137.264 43.2419 137.269C43.6683 137.55 44.1779 137.715 44.7264 137.715H88.7422C92.4325 137.715 95.7111 135.235 96.7155 131.684L103.332 108.282L116.867 103.837C129.655 99.6373 138.248 87.7726 138.248 74.3129V55.0613C138.248 48.1525 135.902 41.35 131.644 35.9088ZM81.6407 5.12005L78.2716 10.5107H54.9455L50.3382 5.12005H81.6407ZM23.0407 94.9657C23.4461 93.4349 24.4242 92.1535 25.7939 91.3586C26.7289 90.8154 27.7512 90.5574 28.7609 90.5574C30.8066 90.5574 32.7997 91.6155 33.8988 93.5075C35.5402 96.3344 34.5758 99.97 31.7489 101.612C30.3791 102.407 28.7819 102.622 27.2511 102.216C25.7202 101.81 24.44 100.832 23.644 99.4625C22.8491 98.0938 22.6343 96.4966 23.0407 94.9657ZM42.5597 108.422V108.423C42.5607 108.423 42.5607 108.423 42.5607 108.424C43.3556 109.793 43.5693 111.39 43.164 112.921C42.7576 114.452 41.7805 115.732 40.4108 116.528C39.041 117.323 37.4438 117.537 35.913 117.132C34.3821 116.725 33.1008 115.748 32.3059 114.378C31.511 113.009 31.2962 111.411 31.7026 109.881C32.1079 108.35 33.086 107.069 34.4558 106.273C35.3718 105.741 36.391 105.469 37.4228 105.469C37.9334 105.469 38.4472 105.535 38.9526 105.67C40.4834 106.075 41.7637 107.054 42.5597 108.422ZM17.2016 106.321C18.1354 105.778 19.1588 105.52 20.1685 105.52C22.2142 105.52 24.2073 106.578 25.3065 108.47C26.1014 109.839 26.3161 111.437 25.9097 112.967C25.5044 114.498 24.5263 115.779 23.1576 116.575C23.1565 116.575 23.1565 116.575 23.1565 116.575C23.1565 116.576 23.1555 116.576 23.1555 116.576C21.7857 117.369 20.1896 117.584 18.6587 117.179C18.1302 117.038 17.6343 116.825 17.1742 116.557C17.13 116.531 17.0857 116.505 17.0415 116.481C16.2287 115.976 15.5465 115.276 15.0516 114.425C13.4102 111.599 14.3746 107.962 17.2016 106.321ZM14.5705 131.534C13.2007 132.33 11.6035 132.543 10.0726 132.138C8.54179 131.732 7.26151 130.753 6.46555 129.384C5.67064 128.014 5.45586 126.417 5.86226 124.887C6.26761 123.356 7.24572 122.075 8.61549 121.28C9.53253 120.747 10.5506 120.475 11.5835 120.475C12.0931 120.475 12.6069 120.542 13.1133 120.675C13.6429 120.817 14.1398 121.029 14.5999 121.299C14.6431 121.324 14.6863 121.349 14.7305 121.372C15.5433 121.878 16.2256 122.578 16.7204 123.429C17.2321 124.31 17.49 125.269 17.5185 126.222V126.25C17.5701 128.347 16.5088 130.408 14.5705 131.534ZM34.5716 127.883C34.1652 129.414 33.1882 130.696 31.8184 131.49C28.9904 133.133 25.3549 132.168 23.7135 129.34C22.9175 127.972 22.7038 126.374 23.1091 124.843C23.5155 123.313 24.4926 122.032 25.8624 121.237H25.8634C25.8634 121.236 25.8634 121.236 25.8634 121.236C26.7805 120.704 27.7986 120.432 28.8304 120.432C29.341 120.432 29.8538 120.499 30.3602 120.632C31.891 121.039 33.1724 122.017 33.9673 123.386C34.7632 124.755 34.978 126.352 34.5716 127.883ZM43.1177 121.189C44.0337 120.657 45.0528 120.385 46.0846 120.385C46.5953 120.385 47.1091 120.451 47.6155 120.586C49.1453 120.991 50.4266 121.969 51.2215 123.339C52.0175 124.708 52.2312 126.306 51.8259 127.836C51.4195 129.367 50.4414 130.648 49.0726 131.443C47.7029 132.239 46.1057 132.453 44.5748 132.047C43.044 131.641 41.7626 130.663 40.9677 129.294C39.3253 126.467 40.2897 122.831 43.1177 121.189ZM91.5281 130.219C91.1775 131.459 90.032 132.325 88.7422 132.325H55.6825C57.8335 128.879 58.0609 124.384 55.8825 120.632C54.3643 118.017 51.9185 116.15 48.9968 115.375C48.6989 115.296 48.3999 115.233 48.0998 115.178C48.2009 114.891 48.2946 114.6 48.3735 114.303C48.9073 112.288 48.8789 110.214 48.3125 108.263C50.3592 107.344 52.6408 107.154 54.8402 107.737L55.7214 107.971C57.1596 108.352 58.6358 107.495 59.0169 106.055C59.398 104.617 58.541 103.142 57.1028 102.76L56.2215 102.526C52.6376 101.576 48.9115 101.955 45.6172 103.578C44.1926 102.083 42.3817 101.003 40.3339 100.46C40.0349 100.381 39.7338 100.316 39.4327 100.262C40.5013 97.2388 40.2918 93.7844 38.5588 90.8006C36.5426 87.3283 32.9502 85.331 29.2062 85.1805L26.8584 76.8776C25.0096 70.3373 26.9226 63.3673 31.8521 58.6874L51.4458 40.0865C54.5928 37.0975 56.3984 32.8955 56.3984 28.5546V15.9003H77.0703V28.5546C77.0703 32.8955 78.8759 37.0975 82.0229 40.0865L101.617 58.6874C106.546 63.3673 108.459 70.3373 106.61 76.8776L98.538 105.425C98.5359 105.431 98.5349 105.437 98.5328 105.444L91.5281 130.219ZM105.328 54.7792L92.1956 42.3112H107.171C111.12 42.3112 114.779 44.0948 117.213 47.2039C118.959 49.4359 119.922 52.227 119.922 55.0613V74.3118C119.922 79.8351 116.397 84.7025 111.149 86.426L109.345 87.0177L111.797 78.3432C114.193 69.8708 111.714 60.8415 105.328 54.7792ZM132.857 74.3129C132.857 85.4374 125.756 95.2447 115.186 98.716L105.101 102.027L107.577 93.2727L112.832 91.5471C120.296 89.095 125.311 82.1693 125.311 74.3118V55.0613C125.311 51.0289 123.942 47.0586 121.457 43.8821C117.995 39.458 112.788 36.9216 107.171 36.9216H86.5186L85.7342 36.1773C83.8528 34.3916 82.7009 31.9479 82.4967 29.3758H107.171C115.125 29.3758 122.497 32.9682 127.399 39.2306C130.919 43.7284 132.857 49.3506 132.857 55.0613V74.3129Z" fill="white"/>
<path d="M80.9321 51.6722C80.2236 51.6722 79.5287 51.9607 79.0265 52.4618C78.5253 52.963 78.2368 53.6579 78.2368 54.3675C78.2368 55.0761 78.5253 55.771 79.0265 56.2721C79.5287 56.7733 80.2236 57.0618 80.9321 57.0618C81.6407 57.0618 82.3366 56.7733 82.8378 56.2721C83.339 55.771 83.6274 55.0761 83.6274 54.3675C83.6274 53.6579 83.339 52.963 82.8378 52.4618C82.3366 51.9607 81.6417 51.6722 80.9321 51.6722Z" fill="white"/>
</g>
<defs>
<clipPath id="clip0">
<rect width="138" height="138" fill="white"/>
</clipPath>
</defs>
</svg>
