<svg width="138" height="138" viewBox="0 0 138 138" fill="none" xmlns="http://www.w3.org/2000/svg">
<path d="M135.304 108.07C112.794 108.07 90.701 117.303 74.6892 133.402C73.6385 134.458 73.6437 136.165 74.6987 137.214C75.2251 137.737 75.9116 137.998 76.6001 137.998C77.2919 137.998 77.9836 137.734 78.5111 137.204C93.5184 122.115 114.218 113.46 135.304 113.46C136.793 113.46 137.999 112.254 137.999 110.765C137.999 109.277 136.793 108.07 135.304 108.07Z" fill="white"/>
<path d="M79.0985 105.573C78.2646 104.339 76.5895 104.015 75.3566 104.849C63.8311 112.634 54.0975 122.375 46.4243 133.8C45.5946 135.036 45.9231 136.711 47.1592 137.541C47.6214 137.851 48.1425 137.999 48.6595 137.999C49.527 137.999 50.3799 137.58 50.9 136.806C58.1836 125.959 67.4266 116.709 78.3741 109.315C79.607 108.482 79.9313 106.807 79.0985 105.573Z" fill="white"/>
<path d="M135.304 86.3725C123.254 86.3725 111.327 88.4308 99.8556 92.4906C98.4521 92.9865 97.7172 94.5268 98.2142 95.9302C98.6048 97.0368 99.645 97.7275 100.755 97.7275C101.053 97.7275 101.356 97.6769 101.654 97.5716C112.547 93.7172 123.868 91.7631 135.304 91.7631C136.793 91.7631 137.999 90.5565 137.999 89.0678C137.999 87.579 136.793 86.3725 135.304 86.3725Z" fill="white"/>
<path d="M38.6175 119.504C56.3496 96.384 82.0181 80.3312 110.342 74.3152C110.347 74.3142 110.352 74.3131 110.357 74.3121C118.496 72.5843 126.853 71.6842 135.304 71.6842C136.792 71.6842 137.999 70.4765 137.999 68.9889C137.999 67.5001 136.792 66.2935 135.304 66.2935C127.64 66.2935 120.006 66.9948 112.501 68.3666V62.5486C122.243 54.3016 127.591 43.4951 127.591 31.9875C127.591 20.0892 121.875 8.94055 111.495 0.594598C110.508 -0.198199 109.103 -0.198199 108.116 0.594598C97.7372 8.94055 92.0202 20.0892 92.0202 31.9875C92.0202 43.4951 97.3687 54.3016 107.11 62.5486V69.4689C101.989 70.6345 96.9413 72.12 91.9992 73.9088V58.1276C91.9992 57.3864 91.7002 56.7158 91.2159 56.2283V56.2272L76.1222 41.0441C75.6158 40.5356 74.9282 40.2492 74.2102 40.2492H43.3943C42.6773 40.2492 41.9888 40.5356 41.4834 41.0441L26.3897 56.2272V56.2283C25.9054 56.7158 25.6053 57.3864 25.6053 58.1287V68.4214C23.727 68.0771 21.8403 67.7739 19.9452 67.5149V57.9065C27.312 51.5694 31.3539 43.3046 31.3539 34.4996C31.3539 25.3008 26.9446 16.6906 18.9387 10.2524C17.9522 9.4596 16.5477 9.4596 15.5611 10.2524C7.55526 16.6895 3.14592 25.3008 3.14592 34.4996C3.14592 43.3035 7.18781 51.5684 14.5546 57.9055V66.8947C10.6243 66.5273 6.66771 66.3378 2.6953 66.3378C1.20657 66.3378 0 67.5443 0 69.0331C0 70.5218 1.20657 71.7284 2.6953 71.7284C24.2472 71.7284 45.3273 77.4306 63.9112 88.2486C59.4587 91.2745 55.2062 94.5794 51.1801 98.137C36.1233 90.466 19.3935 86.4177 2.6953 86.4177C1.20762 86.4177 0 87.6243 0 89.113C0 90.6018 1.20762 91.8083 2.6953 91.8083C17.889 91.8083 33.1132 95.3417 46.9445 102.052C42.8468 106.016 39.0166 110.256 35.4821 114.739C24.9978 110.343 13.9787 108.115 2.6953 108.115C1.20762 108.115 0 109.321 0 110.81C0 112.299 1.20762 113.505 2.6953 113.505C12.8027 113.505 22.6847 115.422 32.1246 119.195C30.2621 121.783 28.4923 124.441 26.8277 127.17L22.7205 133.899C21.9446 135.169 22.3468 136.828 23.6165 137.603C24.0555 137.872 24.5399 137.999 25.0189 137.999C25.9265 137.999 26.814 137.539 27.3215 136.707L31.4287 129.978C33.5702 126.469 35.8843 123.093 38.3512 119.851C38.448 119.744 38.5386 119.629 38.6175 119.504ZM97.4119 31.9875C97.4119 22.4076 101.795 13.333 109.806 6.22209C117.817 13.333 122.2 22.4076 122.2 31.9875C122.2 40.4292 118.793 48.4804 112.501 55.1396V34.4996C112.501 33.0108 111.295 31.8043 109.806 31.8043C108.317 31.8043 107.111 33.0108 107.111 34.4996V55.1396C100.818 48.4804 97.4119 40.4292 97.4119 31.9875ZM8.53652 34.4996C8.53652 27.6244 11.614 21.0947 17.2499 15.9062C22.8858 21.0936 25.9633 27.6244 25.9633 34.4996C25.9633 40.1818 23.8587 45.6292 19.9452 50.2786V32.3433C19.9452 30.8546 18.7386 29.648 17.2499 29.648C15.7622 29.648 14.5546 30.8546 14.5546 32.3433V50.2786C10.6412 45.6292 8.53652 40.1818 8.53652 34.4996ZM82.8246 55.4323H59.6093L49.8746 45.6398H73.09L82.8246 55.4323ZM43.3943 46.7674L52.0087 55.4323H34.7809L43.3943 46.7674ZM30.9959 60.8229H55.7927V77.9633C54.5429 77.3885 53.2858 76.8326 52.0193 76.2988V67.2464C52.0193 65.7587 50.8127 64.5511 49.324 64.5511H37.4646C35.977 64.5511 34.7694 65.7587 34.7694 67.2464V70.4513C33.5165 70.1249 32.2594 69.8153 30.9959 69.5269V60.8229ZM46.6287 74.172C44.4914 73.3845 42.3351 72.6538 40.1599 71.9832V69.9417H46.6287V74.172ZM61.1833 80.6007V60.8229H86.6096V76.0008C81.9929 77.9139 77.4814 80.0975 73.1079 82.5527C71.7097 83.3371 70.3283 84.152 68.9628 84.988C66.4149 83.4319 63.8207 81.9684 61.1833 80.6007Z" fill="white"/>
<path d="M109.806 26.9527C110.515 26.9527 111.211 26.6643 111.712 26.162C112.213 25.6609 112.501 24.966 112.501 24.2574C112.501 23.5478 112.214 22.8529 111.712 22.3518C111.211 21.8496 110.515 21.5621 109.806 21.5621C109.098 21.5621 108.402 21.8496 107.902 22.3518C107.399 22.8529 107.111 23.5478 107.111 24.2574C107.111 24.966 107.399 25.6609 107.902 26.162C108.402 26.6632 109.098 26.9527 109.806 26.9527Z" fill="white"/>
<path d="M86.4107 98.4508C85.9106 98.9519 85.6211 99.6468 85.6211 100.355C85.6211 101.067 85.9096 101.76 86.4107 102.261C86.9129 102.763 87.6078 103.051 88.3164 103.051C89.026 103.051 89.7209 102.763 90.2221 102.261C90.7232 101.76 91.0117 101.067 91.0117 100.355C91.0117 99.6468 90.7232 98.9519 90.2221 98.4508C89.7209 97.9486 89.026 97.6601 88.3164 97.6601C87.6078 97.6601 86.9129 97.9486 86.4107 98.4508Z" fill="white"/>
</svg>
